# xmcd CD database file
#
# Track frame offsets:
#	150
#	24211
#	43807
#	62882
#	90514
#	113280
#	135434
#	156955
#	181884
#	206951
#
# Disc length: 3060 seconds
#
# Revision: 0
# Processed by: cddbd v1.5.2PL0 Copyright (c) Steve Scherf et al.
# Submitted via: CDex 1.51
#
DISCID=7c0bf20a
DTITLE=Oleana Jazzband - Let It Shine
DYEAR=2010
DGENRE=Jazz
TTITLE0=Hindustan
TTITLE1=Mama Inez
TTITLE2=The Storm Is Passing Over
TTITLE3=The Lonesome Road
TTITLE4=Pagan Love Song
TTITLE5=He Touched Me
TTITLE6=Ciribiribin
TTITLE7=See See Rider
TTITLE8=Collegiate
TTITLE9=Let The Light From The Lighthouse
EXTD=YEAR: 2010
EXTT0=
EXTT1=
EXTT2=
EXTT3=
EXTT4=
EXTT5=
EXTT6=
EXTT7=
EXTT8=
EXTT9=
PLAYORDER=
